# xmcd CD database file
#
# Track frame offsets:
#	150
#	19426
#	35003
#	51386
#	66108
#	104409
#	129442
#	152592
#	173135
#	193813
#	209516
#	221048
#	234510
#	250031
#	270104
#	286451
#	299367
#	316573
#	330243
#	343203
#
# Disc length: 4778 seconds
#
# Revision: 0
# Processed by: cddbd v1.5.2PL0 Copyright (c) Steve Scherf et al.
# Submitted via: CDex 1.51
#
DISCID=2f12a814
DTITLE=Kustbandet - Star Dust
DYEAR=1900
DGENRE=Jazz
TTITLE0=Saratoga Drag
TTITLE1=Never Swat A Fly
TTITLE2=Charleston
TTITLE3=Little Orphan Annie
TTITLE4=Rockin' In Rhythm
TTITLE5=Star Dust
TTITLE6=Washboard Wiggles
TTITLE7=Saratoga Shout
TTITLE8=East St Louis Toodle-Oo
TTITLE9=Lookin' Good But Feelin' Bad
TTITLE10=Vince Giordano's Nighthawks: Sweet Man
TTITLE11=Nighthawks: Quality Shout
TTITLE12=Nighthawks: Ostrich Walk
TTITLE13=Nighthawks: Hurricane
TTITLE14=Nighthawks: Clarinet Marmalade
TTITLE15=Nighthawks: Charleston Is The Best Dance After All
TTITLE16=Vince Giordano's Augmented Nighthawks: Blue Room
TTITLE17=Abe Lyman: Looking At The World
TTITLE18=Paul Whiteman: Raggamuffin' Romeo
TTITLE19=Coon Sanders' Nighthawks: Rhythm King
EXTD=
EXTT0=
EXTT1=
EXTT2=
EXTT3=
EXTT4=
EXTT5=
EXTT6=
EXTT7=
EXTT8=
EXTT9=
EXTT10=
EXTT11=
EXTT12=
EXTT13=
EXTT14=
EXTT15=
EXTT16=
EXTT17=
EXTT18=
EXTT19=
PLAYORDER=
